<?xml version="1.0" encoding="utf-8" standalone="no"?>
<!DOCTYPE svg PUBLIC "-//W3C//DTD SVG 1.1//EN"
  "http://www.w3.org/Graphics/SVG/1.1/DTD/svg11.dtd">
<!-- Created with matplotlib (https://matplotlib.org/) -->
<svg height="159.84pt" version="1.1" viewBox="0 0 460.8 159.84" width="460.8pt" xmlns="http://www.w3.org/2000/svg" xmlns:xlink="http://www.w3.org/1999/xlink">
 <defs>
  <style type="text/css">
*{stroke-linecap:butt;stroke-linejoin:round;}
  </style>
 </defs>
 <g id="figure_1">
  <g id="patch_1">
   <path d="M 0 159.84 
L 460.8 159.84 
L 460.8 0 
L 0 0 
z
" style="fill:none;"/>
  </g>
  <g id="axes_1">
   <g id="line2d_1">
    <path clip-path="url(#pc8bbc25bbb)" d="M 47.521236 143.635198 
L 61.407343 143.546705 
L 62.051011 143.245307 
L 62.413324 142.848211 
L 62.655085 142.240289 
L 62.723064 141.474989 
L 62.591216 140.991047 
L 62.24254 140.565452 
L 60.700582 139.157867 
L 60.642124 138.607095 
L 60.799895 138.112929 
L 61.108588 137.835366 
L 61.884557 137.288895 
L 62.025863 136.775461 
L 61.946728 136.380442 
L 61.518346 135.743442 
L 60.325449 134.4487 
L 54.270448 128.244433 
L 53.767456 127.36432 
L 53.672866 126.875512 
L 53.778561 126.21176 
L 54.046914 125.852436 
L 54.295397 125.456103 
L 54.36314 124.764764 
L 54.193299 124.438202 
L 53.514943 123.786833 
L 52.259128 122.499271 
L 51.291873 121.165965 
L 50.423676 119.58143 
L 49.620334 117.631287 
L 48.916485 115.31662 
L 48.33604 112.654439 
L 47.869598 109.473634 
L 47.549583 105.718433 
L 47.409181 101.332629 
L 47.495621 100.003686 
L 47.79921 99.596004 
L 48.306743 99.283748 
L 49.234515 99.003545 
L 50.82747 98.787163 
L 54.268776 98.361322 
L 55.137382 98.01566 
L 55.57027 97.622187 
L 55.746393 97.179422 
L 55.709626 96.600615 
L 55.428749 96.082848 
L 54.8547 95.606697 
L 53.975516 95.194809 
L 52.43514 94.747948 
L 49.009115 93.825002 
L 48.3564 93.396139 
L 48.122461 92.984683 
L 48.134074 92.535198 
L 48.365882 92.061332 
L 48.949172 91.473054 
L 51.32454 89.374075 
L 52.155387 88.232 
L 52.760306 87.030437 
L 53.225054 85.624271 
L 53.535852 83.970307 
L 53.669287 82.039487 
L 53.595032 80.437866 
L 53.28991 78.939076 
L 52.756743 77.466725 
L 52.033623 76.103389 
L 51.13332 74.84799 
L 50.006471 73.657585 
L 48.731634 72.63857 
L 47.392831 71.837476 
L 45.864655 71.186222 
L 44.306973 70.763056 
L 42.709838 70.549793 
L 41.052957 70.543793 
L 39.352161 70.765208 
L 37.812085 71.183832 
L 36.371834 71.789461 
L 34.997595 72.59773 
L 33.715032 73.610355 
L 32.587797 74.786061 
L 31.685603 76.024503 
L 30.944432 77.396982 
L 30.394822 78.886659 
L 30.089449 80.326809 
L 29.997798 81.818781 
L 30.124929 83.897466 
L 30.453791 85.659208 
L 30.955317 87.139281 
L 31.624094 88.408366 
L 32.403185 89.440272 
L 33.483872 90.48327 
L 35.406734 92.218506 
L 35.563026 92.696927 
L 35.503887 93.116537 
L 35.258868 93.44966 
L 34.708832 93.802564 
L 33.669972 94.1712 
L 28.86603 95.576158 
L 28.267242 96.052366 
L 27.971592 96.562928 
L 27.920325 97.158687 
L 28.091238 97.609965 
L 28.511271 98.002512 
L 29.233593 98.314201 
L 30.433702 98.556464 
L 35.35372 99.279621 
L 35.945992 99.667494 
L 36.216444 100.11999 
L 36.263867 100.744504 
L 36.144768 105.273903 
L 35.815546 109.339342 
L 35.320855 112.725298 
L 34.702213 115.511536 
L 33.955116 117.891902 
L 33.108382 119.863618 
L 32.202811 121.436511 
L 31.214242 122.727775 
L 30.019741 123.908688 
L 29.330536 124.676579 
L 29.304407 124.997273 
L 29.453394 125.640015 
L 29.975893 126.549354 
L 29.946635 127.234357 
L 29.63337 127.892589 
L 28.82344 128.978083 
L 27.239956 130.672507 
L 21.784701 136.263247 
L 21.641598 136.655524 
L 21.727253 137.17508 
L 21.987291 137.511474 
L 22.964579 138.300705 
L 23.02846 138.881517 
L 22.879604 139.353253 
L 22.475317 139.806502 
L 21.078799 140.990675 
L 20.945455 141.506861 
L 21.042011 142.349928 
L 21.308199 142.925246 
L 21.689943 143.296273 
L 22.217146 143.534459 
L 23.001161 143.635068 
L 36.264238 143.635198 
L 36.264238 143.635198 
" style="fill:none;stroke:#1f77b4;stroke-linecap:square;stroke-width:1.5;"/>
   </g>
   <g id="line2d_2">
    <path clip-path="url(#pc8bbc25bbb)" d="M 102.403941 143.635198 
L 117.646403 143.548076 
L 118.243995 143.294724 
L 118.664501 142.881491 
L 118.912835 142.330982 
L 119.031671 141.456672 
L 118.949332 140.741193 
L 118.71457 140.34354 
L 118.115055 139.848981 
L 117.131371 139.095623 
L 116.856975 138.633435 
L 116.795787 138.020199 
L 116.97273 137.478635 
L 117.312 137.169454 
L 118.151849 136.556782 
L 118.290321 136.156146 
L 118.246289 135.610134 
L 117.875841 135.00134 
L 116.864234 133.820807 
L 114.219808 131.156041 
L 111.103213 127.934702 
L 109.905649 126.415587 
L 109.408188 125.454831 
L 109.337617 124.966478 
L 109.453715 124.218103 
L 109.78416 123.726112 
L 110.004063 123.233192 
L 110.027149 122.494209 
L 109.790141 122.113054 
L 108.822093 121.170577 
L 107.686215 119.913577 
L 106.725789 118.521231 
L 105.831155 116.828702 
L 105.002289 114.769097 
L 104.271148 112.350932 
L 103.623826 109.410941 
L 103.121444 106.111757 
L 102.752093 102.243476 
L 102.545062 97.753867 
L 102.560125 94.490803 
L 102.779232 94.085785 
L 103.262072 93.716825 
L 104.077698 93.416088 
L 105.419525 93.180148 
L 110.54861 92.492623 
L 111.244253 92.102707 
L 111.545557 91.712624 
L 111.646073 91.193684 
L 111.54471 90.688632 
L 111.194858 90.168619 
L 110.53213 89.690881 
L 109.545533 89.279832 
L 106.331771 88.343678 
L 104.480065 87.833082 
L 103.734316 87.404912 
L 103.48331 87.025473 
L 103.420899 86.519948 
L 103.559004 85.949159 
L 103.917472 85.390014 
L 104.667348 84.74375 
L 106.258207 83.453964 
L 106.930726 82.591926 
L 107.234554 81.861021 
L 107.963869 79.891332 
L 108.367972 77.994823 
L 108.624889 75.656985 
L 108.720834 72.714978 
L 108.551102 70.621678 
L 108.190682 69.665835 
L 107.451981 68.368471 
L 106.534206 67.211347 
L 105.916986 66.728004 
L 102.787459 64.544669 
L 101.641888 64.175908 
L 100.039631 63.523526 
L 99.757838 63.348449 
L 98.858213 63.053947 
L 97.482199 62.838862 
L 95.952576 62.825519 
L 94.562641 63.017262 
L 93.472958 63.373788 
L 92.272721 63.928139 
L 90.064464 64.682509 
L 89.206553 65.256075 
L 88.222065 66.010137 
L 86.5855 67.271014 
L 85.679568 68.452955 
L 84.965878 69.761561 
L 84.624168 70.832885 
L 84.48612 73.081756 
L 84.5952 75.724005 
L 84.90994 78.333202 
L 85.370318 80.26979 
L 85.973306 81.832346 
L 86.433891 82.806183 
L 87.15637 83.610185 
L 88.436243 84.624904 
L 89.34854 85.438311 
L 89.710127 86.063694 
L 89.806236 86.65151 
L 89.673755 87.168153 
L 89.334075 87.51592 
L 88.64884 87.853737 
L 87.289467 88.238701 
L 85.422288 88.790133 
L 83.142223 89.464621 
L 82.249807 89.961132 
L 81.805875 90.432171 
L 81.611616 90.895708 
L 81.609977 91.503795 
L 81.831904 91.939667 
L 82.326825 92.323923 
L 83.155307 92.62942 
L 84.509763 92.866006 
L 89.63273 93.556916 
L 90.315793 93.943994 
L 90.606173 94.319236 
L 90.709315 94.743782 
L 90.700913 96.828606 
L 90.50842 101.740588 
L 90.126248 105.929388 
L 89.593279 109.449646 
L 88.90428 112.531919 
L 88.125769 115.032675 
L 87.248909 117.125558 
L 86.312115 118.812543 
L 85.281682 120.218673 
L 84.070253 121.47753 
L 83.228582 122.408003 
L 83.171519 122.656421 
L 83.292119 123.453999 
L 83.615931 123.928038 
L 83.808505 124.3126 
L 83.88965 125.067484 
L 83.762755 125.600986 
L 83.327355 126.39714 
L 82.34856 127.667013 
L 80.437866 129.719682 
L 75.249582 135.132958 
L 74.921481 135.802561 
L 74.968392 136.293579 
L 75.215511 136.72325 
L 75.796414 137.091141 
L 76.245873 137.455638 
L 76.404191 137.827466 
L 76.411402 138.472831 
L 76.195432 138.959869 
L 75.712217 139.429592 
L 74.376132 140.520348 
L 74.219319 140.963504 
L 74.214982 141.725167 
L 74.394072 142.54889 
L 74.704478 143.044966 
L 75.185836 143.395213 
L 75.828156 143.58243 
L 76.939298 143.623951 
L 90.956273 143.623951 
L 90.956273 143.623951 
" style="fill:none;stroke:#ff7f0e;stroke-linecap:square;stroke-width:1.5;"/>
   </g>
   <g id="line2d_3">
    <path clip-path="url(#pc8bbc25bbb)" d="M 160.303661 143.635198 
L 176.891018 143.551249 
L 177.531188 143.283402 
L 177.97633 142.829981 
L 178.227725 142.203754 
L 178.334687 141.206856 
L 178.260242 140.378064 
L 178.022662 139.936956 
L 177.498795 139.489155 
L 176.310677 138.592967 
L 176.016709 138.090011 
L 175.943589 137.611648 
L 176.08129 136.941168 
L 176.417437 136.553544 
L 177.421026 135.802455 
L 177.571854 135.364668 
L 177.523836 134.763685 
L 177.123403 134.091228 
L 176.037338 132.787228 
L 173.219796 129.853613 
L 170.022249 126.441384 
L 168.711431 124.747521 
L 168.17223 123.745715 
L 168.043674 123.147331 
L 168.131372 122.304158 
L 168.378227 121.776046 
L 168.68702 121.191263 
L 168.772541 120.376338 
L 168.631713 119.992771 
L 168.139212 119.42104 
L 166.331366 117.472964 
L 165.305763 115.965388 
L 164.39524 114.229696 
L 163.547149 112.138231 
L 162.745858 109.537872 
L 162.066058 106.563969 
L 161.488934 103.020676 
L 161.044862 98.85023 
L 160.76453 93.994818 
L 160.681755 88.932635 
L 160.829402 88.359846 
L 161.170249 87.991159 
L 161.811831 87.65934 
L 162.972566 87.368412 
L 164.928453 87.147115 
L 168.551272 86.770363 
L 169.657429 86.441894 
L 170.239515 86.066657 
L 170.518044 85.644974 
L 170.580304 85.200978 
L 170.46713 84.669103 
L 170.091299 84.126525 
L 169.511051 83.70192 
L 168.468088 83.257492 
L 166.043472 82.470953 
L 166.087436 82.394237 
L 165.86243 82.262769 
L 164.553437 81.938583 
L 162.782328 81.453935 
L 162.136091 81.069941 
L 161.922919 80.740677 
L 161.8333 80.124859 
L 161.96215 79.349855 
L 162.279952 78.715862 
L 162.815696 78.210469 
L 164.862945 76.557157 
L 165.289741 75.772668 
L 165.311408 75.342437 
L 165.413296 74.897575 
L 165.824755 73.522419 
L 166.240626 71.33276 
L 166.586183 68.142351 
L 167.001266 62.101382 
L 166.560192 61.131937 
L 165.766818 59.953284 
L 164.9254 59.078082 
L 164.636362 58.936527 
L 164.617938 58.960722 
L 164.466822 58.984133 
L 163.316204 58.353704 
L 162.459396 57.708422 
L 161.826739 57.135017 
L 160.823409 56.723188 
L 160.332377 56.643775 
L 160.331864 56.68284 
L 160.267784 56.739977 
L 159.491258 56.551567 
L 157.891086 56.034806 
L 157.837937 55.829874 
L 157.879246 55.554198 
L 157.593501 55.274454 
L 156.931535 54.946417 
L 155.910537 54.673792 
L 154.575953 54.546789 
L 153.217078 54.627934 
L 152.027685 54.909769 
L 151.253936 55.287298 
L 150.997119 55.606776 
L 150.989508 56.026378 
L 150.508886 56.22143 
L 148.546249 56.64944 
L 148.540933 56.623341 
L 148.477702 56.553971 
L 147.816985 56.716515 
L 146.839779 57.174041 
L 146.432315 57.594402 
L 145.821444 58.087789 
L 144.223074 58.961074 
L 143.842468 59.03012 
L 143.093782 59.801526 
L 142.284404 60.97565 
L 141.786879 62.075429 
L 141.697052 62.697355 
L 142.976527 73.508864 
L 143.757061 76.277421 
L 144.340394 76.949707 
L 145.416124 77.7556 
L 146.394838 78.550465 
L 146.774891 79.172157 
L 146.964493 79.925507 
L 146.919426 80.62197 
L 146.749402 80.972371 
L 146.286138 81.312811 
L 145.301892 81.66774 
L 142.821354 82.378082 
L 142.854666 82.425063 
L 142.808589 82.522232 
L 142.034083 82.771632 
L 139.738488 83.464713 
L 138.93799 83.917696 
L 138.468352 84.411416 
L 138.263774 84.899177 
L 138.2604 85.525072 
L 138.495408 85.969615 
L 138.923796 86.308105 
L 139.650487 86.604617 
L 140.893534 86.859124 
L 143.474018 87.09892 
L 146.140088 87.407574 
L 147.234083 87.739412 
L 147.802498 88.114659 
L 148.066695 88.527955 
L 148.137462 89.117204 
L 148.025158 94.636635 
L 147.720167 99.417201 
L 147.221426 103.743718 
L 146.580356 107.365849 
L 145.833493 110.358842 
L 144.966447 112.922829 
L 144.010739 115.043356 
L 143.011089 116.727856 
L 141.939649 118.109546 
L 140.037848 120.400547 
L 140.128658 121.181885 
L 140.429222 121.757205 
L 140.68188 122.283388 
L 140.771622 123.135878 
L 140.642628 123.731706 
L 140.177694 124.619472 
L 139.232665 125.903778 
L 137.481776 127.883222 
L 131.430008 134.473093 
L 131.221217 135.02274 
L 131.327885 135.657781 
L 131.643736 136.071945 
L 132.788141 137.05399 
L 132.871388 137.590543 
L 132.74734 138.205234 
L 132.414663 138.674104 
L 131.70208 139.217791 
L 130.79513 139.918761 
L 130.555893 140.362124 
L 130.481466 141.064062 
L 130.591022 142.186065 
L 130.840435 142.810342 
L 131.282317 143.262335 
L 131.91452 143.528869 
L 132.84899 143.619228 
L 148.660672 143.619334 
L 148.660672 143.619334 
" style="fill:none;stroke:#2ca02c;stroke-linecap:square;stroke-width:1.5;"/>
   </g>
   <g id="line2d_4">
    <path clip-path="url(#pc8bbc25bbb)" d="M 221.064893 143.635198 
L 238.959574 143.556415 
L 239.639228 143.275927 
L 240.029957 142.898256 
L 240.282272 142.384012 
L 240.41394 141.603107 
L 240.427304 140.296685 
L 240.296944 139.738642 
L 239.947403 139.307753 
L 239.047486 138.68286 
L 238.311477 138.076244 
L 237.999376 137.533657 
L 237.92278 137.00917 
L 238.012896 136.433228 
L 238.335628 135.949842 
L 239.12757 135.432349 
L 239.509529 135.035318 
L 239.6724 134.56104 
L 239.645582 133.971982 
L 239.316541 133.35242 
L 238.349182 132.102642 
L 236.038016 129.571598 
L 231.697871 124.818879 
L 230.397578 123.090414 
L 229.790186 121.967885 
L 229.628322 121.326137 
L 229.686007 120.422428 
L 229.911133 119.749129 
L 230.301029 118.853888 
L 230.340853 117.987208 
L 230.117442 117.525837 
L 229.455764 116.789938 
L 227.915165 115.07436 
L 226.887552 113.57231 
L 225.920592 111.753268 
L 225.011404 109.543312 
L 224.193122 106.956314 
L 223.443018 103.812102 
L 222.792631 100.046674 
L 222.301675 95.895683 
L 221.952483 91.090263 
L 221.771321 85.578147 
L 221.812894 82.487469 
L 222.080897 82.056965 
L 222.564987 81.725325 
L 223.376249 81.436208 
L 224.74979 81.189552 
L 227.762869 80.938509 
L 230.238632 80.656808 
L 231.424783 80.321228 
L 232.042856 79.939502 
L 232.333829 79.513208 
L 232.394605 79.055397 
L 232.269512 78.500492 
L 231.968983 78.041663 
L 231.387621 77.580855 
L 230.468688 77.162346 
L 228.711247 76.660539 
L 227.595799 76.252806 
L 227.565033 76.114705 
L 227.642263 75.856584 
L 227.286756 75.671207 
L 226.039412 75.369341 
L 224.15951 74.897717 
L 223.489114 74.508747 
L 223.284889 74.145628 
L 223.210928 73.306512 
L 223.368268 72.306663 
L 223.643403 71.692142 
L 224.090716 71.269776 
L 226.066473 69.77192 
L 226.374515 69.106931 
L 226.400974 68.629612 
L 226.275477 68.167343 
L 226.578892 66.774542 
L 226.951312 64.258055 
L 227.985091 56.178238 
L 228.506021 53.498661 
L 228.095112 52.594102 
L 227.424856 51.634543 
L 226.603099 50.82584 
L 226.192818 50.629506 
L 225.82133 50.853333 
L 225.033376 50.564417 
L 224.077176 50.118772 
L 223.556859 49.666248 
L 223.066333 49.075714 
L 222.163988 48.721431 
L 221.290318 48.610092 
L 221.040341 48.899566 
L 219.469847 48.617514 
L 218.644388 48.35831 
L 218.405259 48.045875 
L 218.452341 47.775235 
L 218.632856 47.245321 
L 218.456976 46.851513 
L 217.979956 46.427613 
L 217.179906 46.049237 
L 216.082633 45.794884 
L 214.881728 45.733221 
L 213.71384 45.862242 
L 212.674917 46.187768 
L 211.966501 46.624938 
L 211.63064 47.081773 
L 211.636218 47.461563 
L 211.821301 48.069233 
L 211.635948 48.299609 
L 211.007768 48.515932 
L 208.956721 48.777219 
L 208.849093 48.532747 
L 208.247994 48.594409 
L 207.312429 48.910953 
L 206.858994 49.225414 
L 206.489201 49.756856 
L 205.905584 50.156932 
L 204.541765 50.725678 
L 204.107278 50.789549 
L 203.82847 50.587473 
L 203.373134 50.886147 
L 202.651171 51.643447 
L 202.000654 52.612583 
L 201.62771 53.496727 
L 201.598797 54.039431 
L 202.086219 55.865635 
L 202.629037 58.768291 
L 203.750103 68.609966 
L 203.735615 68.951947 
L 203.948651 69.523546 
L 204.391271 70.066725 
L 205.234906 70.674133 
L 206.3447 71.472006 
L 206.663273 71.95637 
L 206.901999 72.778608 
L 206.945638 73.769754 
L 206.812393 74.322963 
L 206.49204 74.635213 
L 205.850658 74.92782 
L 204.486432 75.271035 
L 202.767938 75.723458 
L 202.574967 75.937614 
L 202.630161 76.247916 
L 202.131649 76.46031 
L 198.770835 77.564955 
L 198.192702 78.028783 
L 197.894419 78.491411 
L 197.772938 79.048359 
L 197.875522 79.587578 
L 198.211031 79.992421 
L 198.874301 80.353199 
L 199.934732 80.637671 
L 201.80584 80.872422 
L 206.638945 81.379064 
L 207.604204 81.706731 
L 208.161305 82.11664 
L 208.386454 82.57017 
L 208.42345 83.55603 
L 208.28945 89.671601 
L 207.955615 94.968649 
L 207.454343 99.50947 
L 206.817971 103.35724 
L 206.029433 106.757295 
L 205.162081 109.523608 
L 204.199309 111.847561 
L 203.181009 113.724853 
L 202.11347 115.239214 
L 200.82672 116.660957 
L 199.924523 117.723654 
L 199.81035 118.166042 
L 199.907431 118.981202 
L 200.205886 119.639036 
L 200.45394 120.237608 
L 200.5524 121.191999 
L 200.423312 121.852201 
L 200.00236 122.715925 
L 199.034866 124.111498 
L 197.345677 126.117927 
L 193.598903 130.132276 
L 191.280145 132.755678 
L 190.584899 133.819164 
L 190.482129 134.339327 
L 190.596884 134.882439 
L 190.940492 135.336031 
L 192.100347 136.270867 
L 192.241223 136.776555 
L 192.175566 137.520608 
L 191.861907 138.06256 
L 191.259749 138.576471 
L 190.030261 139.493532 
L 189.793505 139.979693 
L 189.734114 140.937896 
L 189.85706 142.21763 
L 190.151899 142.88185 
L 190.544576 143.258693 
L 191.074225 143.498077 
L 191.895212 143.609936 
L 195.523326 143.617839 
L 209.275535 143.617839 
L 209.275535 143.617839 
" style="fill:none;stroke:#d62728;stroke-linecap:square;stroke-width:1.5;"/>
   </g>
   <g id="line2d_5">
    <path clip-path="url(#pc8bbc25bbb)" d="M 284.410195 143.635198 
L 303.707144 143.524253 
L 304.260614 143.272926 
L 304.667454 142.86687 
L 304.922192 142.296985 
L 305.033379 141.4185 
L 305.029005 139.770391 
L 304.862342 139.18707 
L 304.446415 138.752962 
L 302.637695 137.282636 
L 302.454739 136.796414 
L 302.434931 136.167979 
L 302.588477 135.629748 
L 302.980787 135.171314 
L 304.110012 134.266335 
L 304.284355 133.756978 
L 304.255821 133.120564 
L 303.90573 132.447404 
L 302.988239 131.216363 
L 300.746904 128.660457 
L 296.062806 123.364973 
L 294.670559 121.473533 
L 293.99659 120.229134 
L 293.790149 119.41372 
L 293.857532 118.406489 
L 294.134092 117.530991 
L 294.456482 116.650526 
L 294.504588 115.725082 
L 294.301506 115.237131 
L 293.709621 114.516835 
L 291.895506 112.423889 
L 290.863651 110.846009 
L 289.900578 108.967702 
L 288.996345 106.716055 
L 288.127782 103.921572 
L 287.375211 100.745271 
L 286.71011 96.970981 
L 286.159542 92.541072 
L 285.750439 87.398325 
L 285.509585 81.485808 
L 285.502351 76.339093 
L 285.699941 75.96503 
L 286.170342 75.600682 
L 286.999295 75.284876 
L 288.441025 75.016531 
L 291.218501 74.784058 
L 294.524519 74.456295 
L 295.785267 74.117667 
L 296.435672 73.733954 
L 296.736637 73.308226 
L 296.794862 72.840944 
L 296.657963 72.267656 
L 296.34115 71.798892 
L 295.725495 71.327983 
L 294.746257 70.904316 
L 292.528029 70.296893 
L 291.806176 69.994104 
L 291.680212 69.825228 
L 291.792235 69.562355 
L 291.927957 69.312392 
L 291.79355 69.097931 
L 291.161092 68.836885 
L 289.221374 68.441383 
L 287.942109 68.064333 
L 287.453533 67.702474 
L 287.334796 67.387839 
L 287.282699 66.272977 
L 287.44004 65.022803 
L 287.674213 64.46035 
L 288.116697 64.070866 
L 289.908915 62.810551 
L 290.115533 62.287164 
L 290.124163 61.705807 
L 289.767435 60.748613 
L 290.280264 55.675187 
L 290.749979 50.891179 
L 291.158021 48.891767 
L 291.837015 46.842579 
L 292.602722 45.130336 
L 292.736559 44.734744 
L 292.562829 44.116086 
L 292.025088 43.216785 
L 291.305918 42.428185 
L 290.65459 41.990459 
L 290.419813 41.975072 
L 289.786713 42.454087 
L 288.992652 42.290229 
L 287.749333 41.868007 
L 287.30698 41.503472 
L 287.04089 40.966412 
L 286.881666 40.77037 
L 286.301795 40.505032 
L 285.434347 40.329486 
L 284.794288 40.371541 
L 284.74282 40.640378 
L 284.680986 40.877373 
L 284.434889 40.952572 
L 283.358399 40.843106 
L 281.880876 40.560987 
L 281.559249 40.262075 
L 281.480113 39.860461 
L 281.668063 39.373045 
L 281.96319 38.66812 
L 281.913395 38.126148 
L 281.610712 37.561783 
L 281.021116 37.03994 
L 280.159559 36.636225 
L 279.203145 36.423684 
L 278.011672 36.386872 
L 276.873542 36.573245 
L 275.990652 36.931587 
L 275.367531 37.395446 
L 275.002402 37.906994 
L 274.872565 38.399272 
L 274.957163 38.921304 
L 275.347179 40.072474 
L 275.139983 40.427361 
L 274.648871 40.637566 
L 273.035787 40.848777 
L 272.175221 40.8462 
L 272.081668 40.646456 
L 272.053436 40.350692 
L 271.784119 40.26368 
L 271.057937 40.313194 
L 270.236403 40.550274 
L 269.787116 40.872184 
L 269.538029 41.406834 
L 269.100998 41.783574 
L 268.367443 42.081762 
L 266.943931 42.408392 
L 266.685123 42.338045 
L 266.200104 41.917563 
L 265.817523 42.093443 
L 265.178075 42.64845 
L 264.520313 43.494367 
L 264.100679 44.390514 
L 264.050791 44.847035 
L 264.311667 45.394125 
L 264.989769 46.968933 
L 265.699506 49.179834 
L 266.063142 51.111191 
L 266.40242 54.254375 
L 266.881619 61.327284 
L 266.631655 61.83576 
L 266.675952 62.319176 
L 266.922163 62.83183 
L 267.372831 63.259811 
L 269.245313 64.666551 
L 269.438428 65.459486 
L 269.527286 66.663822 
L 269.408359 67.595959 
L 269.077382 67.925419 
L 268.396229 68.214712 
L 266.744814 68.577753 
L 265.282506 68.958035 
L 264.951636 69.215345 
L 265.015997 69.483052 
L 265.182786 69.70762 
L 265.1146 69.926597 
L 264.743721 70.134323 
L 263.507511 70.483527 
L 261.66388 71.028022 
L 260.778245 71.503292 
L 260.267507 72.029633 
L 260.047185 72.554012 
L 260.039824 73.195894 
L 260.295854 73.642304 
L 260.784088 73.990215 
L 261.626064 74.295377 
L 263.077748 74.555905 
L 266.077925 74.798797 
L 268.96676 75.086675 
L 270.259309 75.412587 
L 270.941879 75.786569 
L 271.269753 76.209997 
L 271.3423 76.579745 
L 271.341832 79.320257 
L 271.145263 85.858429 
L 270.749685 91.516945 
L 270.186644 96.365074 
L 269.488349 100.466162 
L 268.687794 103.883909 
L 267.818262 106.68591 
L 266.855876 109.06771 
L 265.836764 111.015687 
L 264.760035 112.612404 
L 263.46909 114.10992 
L 262.421114 115.377862 
L 262.28704 115.878333 
L 262.352506 116.625936 
L 262.628006 117.422922 
L 262.918696 118.207398 
L 263.025865 119.266818 
L 262.932845 119.886052 
L 262.528683 120.813124 
L 261.655828 122.171136 
L 260.081626 124.1633 
L 257.04723 127.574722 
L 253.520165 131.583324 
L 252.650882 132.880549 
L 252.502424 133.358948 
L 252.570723 133.937937 
L 252.793977 134.386984 
L 253.235725 134.773283 
L 254.053343 135.363751 
L 254.295709 135.781142 
L 254.39231 136.397483 
L 254.307209 136.973913 
L 253.969128 137.554146 
L 253.325942 138.09788 
L 252.033707 139.055811 
L 251.832663 139.43576 
L 251.75762 140.280231 
L 251.85751 142.11833 
L 252.075997 142.730876 
L 252.451675 143.176845 
L 252.980123 143.463953 
L 253.663585 143.596921 
L 256.066436 143.618944 
L 272.58049 143.618944 
L 272.58049 143.618944 
" style="fill:none;stroke:#9467bd;stroke-linecap:square;stroke-width:1.5;"/>
   </g>
   <g id="line2d_6">
    <path clip-path="url(#pc8bbc25bbb)" d="M 349.928837 143.635198 
L 370.376236 143.534074 
L 370.952044 143.274992 
L 371.371408 142.842197 
L 371.624824 142.215374 
L 371.708938 141.23424 
L 371.674013 139.02898 
L 371.472441 138.617361 
L 370.992678 138.187045 
L 369.419989 137.026636 
L 369.078041 136.411785 
L 368.996754 135.797428 
L 369.107418 135.144617 
L 369.368753 134.704359 
L 369.979214 134.225823 
L 370.685418 133.649344 
L 370.920817 133.16739 
L 370.974561 132.428365 
L 370.739629 131.855995 
L 370.006243 130.753486 
L 368.263503 128.62017 
L 361.834496 121.001523 
L 360.680993 119.218751 
L 360.196092 118.086357 
L 360.108351 117.355604 
L 360.224382 116.234547 
L 360.59023 115.091319 
L 360.812406 114.110712 
L 360.764379 113.299038 
L 360.461064 112.724958 
L 359.637063 111.762779 
L 358.198299 110.025532 
L 357.128679 108.365364 
L 356.12497 106.376041 
L 355.178914 103.977562 
L 354.322289 101.192576 
L 353.524024 97.822102 
L 352.812202 93.802409 
L 352.214517 89.070744 
L 351.75826 83.565071 
L 351.470359 77.223856 
L 351.383925 70.388037 
L 351.481731 69.968449 
L 351.771158 69.621663 
L 352.359705 69.288929 
L 353.330553 69.006748 
L 355.169736 68.751054 
L 361.861864 68.073662 
L 362.797438 67.68695 
L 363.203831 67.30618 
L 363.347079 66.927637 
L 363.299797 66.338734 
L 363.059417 65.82092 
L 362.641542 65.38935 
L 361.906864 64.962232 
L 360.609128 64.528857 
L 358.241906 63.818549 
L 358.033967 63.621832 
L 357.990797 63.489211 
L 358.191518 63.048484 
L 358.426328 62.627238 
L 358.280799 62.310996 
L 357.804528 62.060283 
L 356.6042 61.784123 
L 354.397485 61.313735 
L 353.843052 60.981143 
L 353.684826 60.684792 
L 353.641209 59.243685 
L 353.783401 57.446011 
L 354.026063 57.033534 
L 354.482334 56.716343 
L 355.860814 55.927929 
L 356.081168 55.513398 
L 356.128714 54.904245 
L 355.929215 54.39013 
L 355.421898 53.687365 
L 355.353298 53.068461 
L 355.462279 50.821748 
L 355.746461 45.041894 
L 356.093732 42.353001 
L 356.554456 40.457789 
L 357.172883 38.906403 
L 358.087109 37.117154 
L 359.182544 35.105153 
L 358.912445 34.472015 
L 358.346191 33.731676 
L 357.599631 33.126886 
L 357.116591 32.967535 
L 356.957272 33.015749 
L 355.958657 33.867214 
L 355.158728 33.822843 
L 353.713939 33.539101 
L 353.21577 33.211182 
L 352.977296 32.819265 
L 352.741084 32.22336 
L 352.135805 31.974581 
L 351.191704 31.865075 
L 350.61192 31.933197 
L 350.365631 32.152282 
L 350.26014 32.864808 
L 349.941117 33.005991 
L 348.926804 32.984091 
L 347.248719 32.800404 
L 346.817112 32.490939 
L 346.688841 32.134404 
L 346.710525 31.478775 
L 347.1117 30.670059 
L 347.432567 29.968085 
L 347.528978 29.378186 
L 347.426306 28.578219 
L 347.049951 27.821738 
L 346.542047 27.298459 
L 345.828695 26.873622 
L 344.903011 26.594661 
L 343.915926 26.515247 
L 342.784496 26.656016 
L 341.881615 27.00339 
L 341.20306 27.501118 
L 340.747064 28.097974 
L 340.50982 28.723604 
L 340.467129 29.583612 
L 340.719287 30.37461 
L 341.305155 31.616843 
L 341.267035 32.266809 
L 341.07726 32.584647 
L 340.744467 32.776126 
L 339.897045 32.904273 
L 337.902656 32.944396 
L 337.654215 32.739914 
L 337.418163 31.92549 
L 336.795653 31.829076 
L 335.839423 31.936745 
L 335.255419 32.168937 
L 335.081588 32.361875 
L 334.869449 33.020264 
L 334.555227 33.339859 
L 333.96942 33.593955 
L 332.705968 33.799557 
L 331.933132 33.832604 
L 331.561227 33.678054 
L 330.786524 32.940374 
L 330.356229 33.080557 
L 329.727882 33.560586 
L 329.122902 34.289384 
L 328.795033 34.961876 
L 328.7657 35.479059 
L 329.119025 35.988094 
L 330.026677 37.4072 
L 330.951168 39.299598 
L 331.546601 40.974109 
L 331.934646 42.824627 
L 332.247563 45.518671 
L 332.452828 49.517504 
L 332.525437 53.683939 
L 332.162371 54.208083 
L 331.845882 54.74767 
L 331.823253 55.298079 
L 332.019029 55.803254 
L 332.428889 56.174658 
L 334.094043 57.248624 
L 334.215637 57.733023 
L 334.32432 59.564188 
L 334.242193 60.791955 
L 334.011154 61.06417 
L 333.505513 61.319007 
L 332.45452 61.579659 
L 330.083297 62.085592 
L 329.661524 62.353191 
L 329.582187 62.494443 
L 329.588222 62.73358 
L 329.994517 63.537199 
L 329.81871 63.761057 
L 329.199762 64.042962 
L 325.531542 65.227327 
L 324.958241 65.734903 
L 324.687354 66.244409 
L 324.608914 66.831379 
L 324.766353 67.30204 
L 325.183695 67.684196 
L 325.983127 68.025803 
L 327.242195 68.292273 
L 329.650447 68.52473 
L 334.302124 68.930555 
L 335.611479 69.279635 
L 336.272802 69.680333 
L 336.519046 70.034769 
L 336.582744 70.434729 
L 336.552447 74.891009 
L 336.307549 81.887063 
L 335.897226 87.58804 
L 335.337427 92.521694 
L 334.604798 96.9986 
L 333.765604 100.724812 
L 332.854648 103.771723 
L 331.847212 106.351755 
L 330.782013 108.450928 
L 329.659863 110.161057 
L 328.364735 111.712354 
L 327.30938 113.032619 
L 327.141749 113.590641 
L 327.174664 114.271656 
L 327.427544 115.223075 
L 327.781784 116.429678 
L 327.854395 117.642851 
L 327.653765 118.43079 
L 327.122727 119.501584 
L 326.106919 121.030405 
L 324.240069 123.394631 
L 320.346287 127.873199 
L 317.850897 130.894478 
L 317.094156 132.118582 
L 316.976346 132.546373 
L 317.050278 133.166796 
L 317.290551 133.649246 
L 317.758569 134.067468 
L 318.61174 134.708307 
L 318.869424 135.157162 
L 318.972109 135.808928 
L 318.879489 136.435474 
L 318.518304 137.051115 
L 317.837503 137.621012 
L 316.492355 138.611663 
L 316.295273 139.01806 
L 316.248049 140.162932 
L 316.349796 142.216776 
L 316.610411 142.845866 
L 317.042342 143.277706 
L 317.641064 143.532296 
L 318.58472 143.620858 
L 328.727145 143.623928 
L 338.228158 143.623928 
L 338.228158 143.623928 
" style="fill:none;stroke:#8c564b;stroke-linecap:square;stroke-width:1.5;"/>
   </g>
   <g id="line2d_7">
    <path clip-path="url(#pc8bbc25bbb)" d="M 417.071151 143.635198 
L 438.536364 143.546856 
L 439.129323 143.282663 
L 439.556987 142.825455 
L 439.804811 142.141109 
L 439.854545 141.053126 
L 439.798096 138.435092 
L 439.536236 138.033988 
L 438.841147 137.514749 
L 437.626163 136.644283 
L 437.217316 136.042363 
L 437.075553 135.448594 
L 437.127888 134.729731 
L 437.364295 134.190989 
L 437.841572 133.725431 
L 438.834233 132.925821 
L 439.082726 132.412471 
L 439.13915 131.632279 
L 438.892758 131.020865 
L 438.131259 129.843819 
L 436.335948 127.570318 
L 429.887555 119.644504 
L 428.669469 117.722092 
L 428.13352 116.484292 
L 428.016865 115.78569 
L 428.144872 114.336287 
L 428.670992 111.220477 
L 428.422094 110.623198 
L 427.79728 109.800851 
L 425.884271 107.410787 
L 424.829914 105.671592 
L 423.852519 103.628288 
L 422.935938 101.203195 
L 422.049707 98.210392 
L 421.223213 94.578896 
L 420.485121 90.239554 
L 419.90061 85.491143 
L 419.41188 79.592309 
L 419.091417 72.789761 
L 418.965344 65.030127 
L 419.046268 63.888713 
L 419.34077 63.533001 
L 419.956956 63.195886 
L 420.98207 62.913861 
L 422.928585 62.662028 
L 429.963244 62.001205 
L 430.93412 61.622431 
L 431.349429 61.251321 
L 431.491377 60.884522 
L 431.43433 60.282701 
L 431.184367 59.766899 
L 430.751705 59.335588 
L 429.985869 58.91102 
L 428.626546 58.486915 
L 426.326331 57.829914 
L 425.971146 57.490074 
L 425.927965 57.29891 
L 426.02232 56.901284 
L 426.492675 56.346353 
L 426.621898 55.965105 
L 426.468458 55.516412 
L 425.972468 55.21808 
L 424.944696 54.96733 
L 422.317419 54.453357 
L 421.898156 54.180724 
L 421.752762 53.865729 
L 421.791581 50.017404 
L 422.024966 49.651183 
L 422.463128 49.399255 
L 423.594211 48.884116 
L 423.795942 48.550609 
L 423.836196 48.133264 
L 423.715644 47.594793 
L 423.431002 47.149134 
L 422.608886 46.179455 
L 422.460759 45.689176 
L 422.352022 42.047481 
L 422.376944 38.34035 
L 422.613563 35.415649 
L 422.97322 33.359107 
L 423.450559 31.732236 
L 424.017012 30.480276 
L 425.051684 28.712558 
L 426.153398 27.219411 
L 427.460268 25.568748 
L 427.315684 25.079805 
L 426.853405 24.444434 
L 426.205985 23.924637 
L 425.647721 23.727677 
L 425.275877 23.826554 
L 424.072573 25.090995 
L 423.513423 25.239061 
L 421.907881 25.236056 
L 420.987082 25.046895 
L 420.627186 24.785332 
L 420.40835 24.34314 
L 420.217152 23.620654 
L 419.768197 23.430102 
L 418.998368 23.343639 
L 418.121396 23.44013 
L 417.692872 23.63615 
L 417.571924 23.861268 
L 417.523526 24.709498 
L 417.226933 25.120678 
L 416.759561 25.23736 
L 414.771327 25.258394 
L 413.989281 25.141772 
L 413.656698 24.932581 
L 413.446948 24.542178 
L 413.410894 23.601463 
L 413.598004 22.949905 
L 414.712038 20.490264 
L 414.784592 19.553415 
L 414.625378 18.524657 
L 414.306925 17.78358 
L 413.778931 17.113609 
L 413.067992 16.606764 
L 412.171681 16.29086 
L 411.226317 16.204802 
L 410.295698 16.32347 
L 409.409691 16.679262 
L 408.714883 17.230406 
L 408.220415 17.933527 
L 407.931435 18.72349 
L 407.826544 19.86354 
L 407.970262 20.798786 
L 408.450634 21.915912 
L 409.097626 23.171804 
L 409.215787 23.847062 
L 409.095934 24.728271 
L 408.803013 25.052202 
L 408.380071 25.209904 
L 407.464806 25.258173 
L 405.445479 25.14891 
L 405.119933 24.823025 
L 404.789934 23.552339 
L 404.049625 23.363606 
L 403.010386 23.395036 
L 402.420297 23.600277 
L 402.259685 23.805144 
L 402.169758 24.451051 
L 401.907491 24.862339 
L 401.504103 25.094696 
L 400.757359 25.232219 
L 399.00807 25.227454 
L 398.506797 25.076233 
L 398.017015 24.661609 
L 397.315177 23.812867 
L 396.886293 23.736875 
L 396.364648 23.947706 
L 395.755074 24.445632 
L 395.264973 25.13954 
L 395.150441 25.637837 
L 395.29042 25.956096 
L 396.706791 27.529378 
L 397.799841 29.090185 
L 398.826245 30.942426 
L 399.358062 32.319945 
L 399.796509 34.131855 
L 400.114447 36.507838 
L 400.264471 39.400273 
L 400.220849 43.384032 
L 400.087517 45.967815 
L 399.839761 46.435527 
L 398.877836 47.634104 
L 398.771001 48.264923 
L 398.911876 48.75937 
L 399.274651 49.069084 
L 400.767283 49.888529 
L 400.859719 50.37968 
L 400.767149 54.110319 
L 400.482152 54.359449 
L 399.733672 54.628169 
L 397.904194 54.92869 
L 396.683274 55.201055 
L 396.202299 55.458155 
L 395.996231 55.786945 
L 396.022141 56.151283 
L 396.671131 57.391968 
L 396.481014 57.692902 
L 396.017966 57.954507 
L 394.85451 58.284018 
L 392.679219 58.888089 
L 391.913087 59.295304 
L 391.380326 59.832019 
L 391.153047 60.37188 
L 391.141219 60.998545 
L 391.335457 61.347448 
L 391.815921 61.700585 
L 392.711299 62.017846 
L 394.303554 62.286648 
L 397.398593 62.513421 
L 401.09959 62.82274 
L 402.519624 63.146982 
L 403.255447 63.522481 
L 403.592687 63.957717 
L 403.645002 64.387535 
L 403.534162 72.253481 
L 403.231199 79.058148 
L 402.759564 84.989906 
L 402.141642 90.119709 
L 401.404125 94.488299 
L 400.575589 98.14961 
L 399.624973 101.346818 
L 398.641161 103.896523 
L 397.60099 105.996368 
L 396.498538 107.734947 
L 395.202013 109.352979 
L 394.111044 110.759973 
L 393.911006 111.375446 
L 393.911565 111.955946 
L 394.139596 113.067709 
L 394.536578 114.80449 
L 394.563337 116.113266 
L 394.282678 117.015496 
L 393.66409 118.208683 
L 392.423079 120.060642 
L 390.275558 122.806701 
L 383.884078 130.727756 
L 383.470367 131.633 
L 383.482249 132.206704 
L 383.686942 132.792983 
L 384.149102 133.295193 
L 385.265574 134.220773 
L 385.487571 134.754935 
L 385.529571 135.499858 
L 385.369365 136.094024 
L 384.92903 136.698817 
L 384.189748 137.254792 
L 383.055338 138.053076 
L 382.808031 138.444991 
L 382.755132 138.984001 
L 382.854461 142.357897 
L 383.16143 142.98245 
L 383.654147 143.388012 
L 384.333472 143.59947 
L 385.532946 143.635198 
L 405.734024 143.635198 
L 405.734024 143.635198 
" style="fill:none;stroke:#e377c2;stroke-linecap:square;stroke-width:1.5;"/>
   </g>
  </g>
 </g>
 <defs>
  <clipPath id="pc8bbc25bbb">
   <rect height="140.173435" width="460.8" x="0" y="9.833283"/>
  </clipPath>
 </defs>
</svg>
